<?xml version="1.0" standalone="no"?>
<!DOCTYPE svg PUBLIC "-//W3C//DTD SVG 20010904//EN"
 "http://www.w3.org/TR/2001/REC-SVG-20010904/DTD/svg10.dtd">
<svg version="1.0" xmlns="http://www.w3.org/2000/svg"
 width="300.000000pt" height="183.000000pt" viewBox="0 0 300.000000 183.000000"
 preserveAspectRatio="xMidYMid meet">
<metadata>
Created by potrace 1.10, written by Peter Selinger 2001-2011
</metadata>
<g transform="translate(0.000000,183.000000) scale(0.100000,-0.100000)"
fill="#000000" stroke="none">
<path d="M115 1768 c-3 -7 -4 -393 -3 -858 l3 -845 1375 0 1375 0 0 855 0 855
-1373 3 c-1093 2 -1374 0 -1377 -10z m2728 -22 c2 -6 3 -382 3 -836 l-1 -825
-1357 -3 -1357 -2 0 832 c0 457 2 835 4 839 8 12 2703 8 2708 -5z"/>
<path d="M295 1592 c-42 -9 -45 -19 -45 -153 0 -115 2 -129 19 -141 30 -21
2426 -17 2447 4 20 20 21 255 1 275 -12 12 -199 14 -1208 17 -657 1 -1203 0
-1214 -2z m2415 -152 l0 -130 -1217 0 -1218 0 0 130 0 130 1218 0 1217 0 0
-130z"/>
<path d="M355 1470 c-3 -5 3 -10 14 -10 27 0 26 -8 -1 -37 l-21 -23 29 0 c20
0 25 3 15 9 -9 6 -10 11 -2 15 17 11 13 34 -8 46 -13 7 -22 7 -26 0z"/>
<path d="M420 1470 c0 -13 33 -21 42 -12 6 6 -1 11 -16 14 -14 3 -26 2 -26 -2z"/>
<path d="M300 1460 c-10 -6 -11 -10 -2 -10 6 0 12 -9 12 -19 0 -11 -6 -22 -12
-24 -7 -3 1 -6 17 -6 17 0 25 3 18 7 -6 4 -13 19 -15 34 -2 22 -6 25 -18 18z"/>
<path d="M488 1450 c-6 -18 -3 -29 9 -37 25 -19 33 -16 33 12 0 14 -5 25 -11
25 -5 0 -8 -4 -4 -9 3 -5 1 -12 -4 -15 -5 -4 -11 6 -13 21 l-3 28 -7 -25z"/>
<path d="M430 1440 c0 -5 5 -10 10 -10 6 0 10 -4 10 -10 0 -5 -7 -10 -17 -10
-9 0 -14 -3 -10 -6 8 -8 47 5 47 16 0 5 -9 14 -20 20 -14 7 -20 7 -20 0z"/>
<path d="M284 1219 c-20 -22 -18 -103 2 -120 23 -19 148 -17 168 4 22 22 21
98 -1 117 -26 21 -149 21 -169 -1z m156 -59 l0 -50 -75 0 -75 0 0 50 0 50 75
0 75 0 0 -50z"/>
<path d="M315 1170 c4 -6 1 -17 -5 -25 -10 -12 -8 -15 11 -15 17 0 20 3 10 9
-9 6 -10 11 -2 15 13 8 5 26 -10 26 -6 0 -7 -5 -4 -10z"/>
<path d="M286 528 c-13 -7 -16 -31 -16 -133 0 -68 4 -126 9 -130 16 -9 2413
-6 2425 4 12 10 14 246 3 258 -10 10 -2403 11 -2421 1z m2414 -133 l0 -125
-1210 0 -1210 0 0 125 0 125 1210 0 1210 0 0 -125z"/>
<path d="M1141 494 c-18 -13 -20 -18 -10 -25 11 -7 12 -12 2 -28 -11 -18 -10
-22 8 -31 11 -6 30 -10 42 -8 12 1 28 -1 35 -6 7 -4 18 -4 25 1 13 10 224 10
233 0 4 -4 14 -3 23 2 9 4 86 6 171 5 128 -1 158 1 173 14 20 18 23 67 5 79
-18 10 -419 11 -441 1 -9 -5 -23 -5 -30 -1 -18 11 -160 12 -174 1 -7 -5 -14
-5 -18 2 -9 14 -17 13 -44 -6z m41 -34 c3 -37 2 -40 -22 -39 -14 0 -19 3 -12
6 15 6 16 43 1 43 -8 0 -8 5 1 15 20 24 28 18 32 -25z m74 -14 c-10 -41 -56
-30 -56 14 0 5 7 16 16 25 15 15 19 15 32 2 9 -10 12 -24 8 -41z m62 10 c-2
-23 -8 -31 -23 -31 -23 0 -33 38 -15 60 19 23 41 6 38 -29z m65 -28 c7 -4 -1
-7 -18 -7 -16 0 -24 3 -17 6 6 2 12 13 12 23 0 10 -6 21 -12 23 -10 4 -9 8 2
16 12 9 16 5 18 -22 2 -17 9 -35 15 -39z m55 31 c-3 -16 0 -31 6 -33 6 -2 -2
-4 -19 -4 -16 0 -24 2 -17 5 15 6 16 43 1 43 -8 0 -8 5 1 15 18 21 33 7 28
-26z m78 -13 c-10 -41 -56 -30 -56 14 0 5 7 16 16 25 15 15 19 15 32 2 9 -10
12 -24 8 -41z m52 13 c-3 -16 0 -31 6 -33 6 -2 -2 -4 -19 -4 -16 0 -24 2 -17
5 15 6 16 43 1 43 -8 0 -8 5 1 15 18 21 33 7 28 -26z m72 26 c17 -21 4 -65
-20 -65 -23 0 -35 33 -20 60 13 24 23 25 40 5z m68 -29 c-2 -23 -8 -31 -23
-31 -23 0 -33 38 -15 60 19 23 41 6 38 -29z m65 -28 c7 -4 -1 -7 -18 -7 -16 0
-24 3 -17 6 6 2 12 13 12 23 0 10 -6 21 -12 23 -10 4 -9 8 2 16 12 9 16 5 18
-22 2 -17 9 -35 15 -39z m65 23 c-2 -18 -9 -26 -23 -26 -24 0 -33 38 -14 61
17 21 41 -2 37 -35z"/>
<path d="M1220 470 c0 -5 6 -10 13 -10 8 0 7 -3 -3 -10 -8 -5 -11 -12 -7 -16
12 -12 28 11 21 29 -7 18 -24 23 -24 7z"/>
<path d="M1280 470 c0 -5 4 -10 9 -10 6 0 13 5 16 10 3 6 -1 10 -9 10 -9 0
-16 -4 -16 -10z"/>
<path d="M1291 451 c-8 -6 -9 -11 -3 -15 6 -3 14 -1 17 5 9 14 2 20 -14 10z"/>
<path d="M1480 470 c0 -5 6 -10 13 -10 8 0 7 -3 -3 -10 -8 -5 -11 -12 -7 -17
11 -10 27 17 20 34 -6 15 -23 18 -23 3z"/>
<path d="M1610 470 c0 -5 5 -10 10 -10 6 0 10 5 10 10 0 6 -4 10 -10 10 -5 0
-10 -4 -10 -10z"/>
<path d="M1610 440 c0 -5 5 -10 10 -10 6 0 10 5 10 10 0 6 -4 10 -10 10 -5 0
-10 -4 -10 -10z"/>
<path d="M1670 470 c0 -5 4 -10 9 -10 6 0 13 5 16 10 3 6 -1 10 -9 10 -9 0
-16 -4 -16 -10z"/>
<path d="M1681 451 c-8 -6 -9 -11 -3 -15 6 -3 14 -1 17 5 9 14 2 20 -14 10z"/>
<path d="M1800 470 c0 -5 4 -10 9 -10 6 0 13 5 16 10 3 6 -1 10 -9 10 -9 0
-16 -4 -16 -10z"/>
<path d="M1811 451 c-8 -6 -9 -11 -3 -15 6 -3 14 -1 17 5 9 14 2 20 -14 10z"/>
</g>
</svg>
