<?xml version="1.0" standalone="no"?>
<!DOCTYPE svg PUBLIC "-//W3C//DTD SVG 20010904//EN"
 "http://www.w3.org/TR/2001/REC-SVG-20010904/DTD/svg10.dtd">
<svg version="1.0" xmlns="http://www.w3.org/2000/svg"
 width="300.000000pt" height="417.000000pt" viewBox="0 0 300.000000 417.000000"
 preserveAspectRatio="xMidYMid meet">
<metadata>
Created by potrace 1.10, written by Peter Selinger 2001-2011
</metadata>
<g transform="translate(0.000000,417.000000) scale(0.100000,-0.100000)"
fill="#000000" stroke="none">
<path d="M256 3994 c-14 -14 -16 -200 -16 -1899 0 -1699 2 -1885 16 -1899 14
-14 142 -16 1263 -16 956 0 1250 3 1259 12 17 17 17 3789 0 3806 -9 9 -303 12
-1259 12 -1121 0 -1249 -2 -1263 -16z m2504 -29 c17 -21 15 -3731 -2 -3752 -8
-11 -240 -13 -1230 -13 -821 0 -1226 3 -1239 10 -19 11 -19 42 -19 1884 0
1030 3 1876 7 1879 3 4 561 7 1238 7 1095 0 1234 -2 1245 -15z"/>
<path d="M367 3762 c-23 -25 -25 -273 -3 -291 12 -10 833 -14 2248 -11 96 0
98 3 98 159 0 111 -2 130 -18 144 -17 16 -112 17 -1164 17 -1096 0 -1146 -1
-1161 -18z m2316 -144 l-2 -133 -1156 -3 -1155 -2 0 135 0 135 1158 0 1157 0
-2 -132z"/>
<path d="M1613 3381 c-14 -15 -18 -34 -16 -81 3 -108 -43 -100 548 -100 591 0
545 -8 545 99 0 111 55 101 -540 101 -500 0 -520 -1 -537 -19z m1050 -81 l2
-70 -522 0 -523 0 0 68 c0 38 2 71 4 73 2 2 237 3 521 2 l517 -3 1 -70z"/>
<path d="M409 2578 c-7 -12 -11 -67 -11 -132 0 -100 2 -112 22 -128 19 -15 52
-17 321 -18 259 0 305 2 335 16 29 14 37 14 51 3 13 -11 83 -15 331 -17 301
-3 317 -2 342 17 25 18 28 18 44 3 15 -15 51 -17 336 -17 288 0 321 2 336 17
15 14 17 37 17 132 0 79 -4 120 -13 131 -11 13 -56 15 -336 15 -304 0 -325 -1
-343 -19 -18 -18 -19 -18 -35 0 -15 18 -35 19 -336 19 -270 0 -324 -2 -344
-15 -21 -14 -24 -14 -36 0 -11 13 -59 15 -341 15 -326 0 -328 0 -340 -22z
m671 -123 l0 -125 -330 0 -330 0 0 125 0 125 330 0 330 0 0 -125z m714 -2 l1
-123 -327 0 -328 0 0 125 0 125 326 -2 326 -3 2 -122z m716 2 l0 -125 -330 0
-330 0 0 125 0 125 330 0 330 0 0 -125z"/>
<path d="M740 2480 c-10 -6 -11 -10 -2 -10 6 0 12 -9 12 -19 0 -11 -6 -22 -12
-24 -7 -3 1 -6 17 -6 17 0 25 3 18 7 -6 4 -13 19 -15 34 -2 22 -6 25 -18 18z"/>
<path d="M1458 2483 c17 -7 15 -23 -5 -45 -15 -17 -15 -18 13 -17 16 0 23 3
16 6 -10 4 -10 8 -1 19 15 18 4 44 -18 43 -11 0 -13 -3 -5 -6z"/>
<path d="M2167 2484 c7 -3 9 -12 6 -20 -3 -8 1 -14 8 -14 9 -1 7 -6 -5 -15
-23 -17 -2 -21 24 -5 12 7 12 12 3 21 -9 9 -10 16 -2 26 9 10 5 13 -17 12 -16
0 -24 -3 -17 -5z"/>
<path d="M423 2132 c-23 -14 -28 -51 -23 -158 5 -103 6 -109 30 -121 38 -20
647 -14 660 6 7 13 14 12 47 -3 34 -15 72 -17 345 -14 272 3 309 5 324 20 16
15 19 15 43 -3 26 -19 42 -20 339 -17 283 3 313 5 329 21 15 15 18 36 18 131
0 81 -4 118 -14 129 -12 15 -48 17 -335 17 -259 0 -325 -3 -342 -14 -17 -12
-22 -12 -39 0 -26 19 -645 21 -675 2 -16 -10 -24 -10 -40 0 -22 14 -645 18
-667 4z m657 -137 l0 -125 -330 0 -330 0 0 125 0 125 330 0 330 0 0 -125z
m714 -2 l1 -123 -327 0 -328 0 0 125 0 125 326 -2 326 -3 2 -122z m716 2 l0
-125 -330 0 -330 0 0 125 0 125 330 0 330 0 0 -125z"/>
<path d="M730 2001 c0 -20 6 -30 20 -34 24 -6 30 2 19 28 -4 11 -8 14 -8 8 -1
-7 -5 -13 -10 -13 -5 0 -7 9 -4 20 3 11 0 20 -6 20 -6 0 -11 -13 -11 -29z"/>
<path d="M1450 2010 c0 -12 7 -20 18 -20 13 -1 11 -4 -8 -15 -25 -14 -25 -14
-2 -15 30 0 41 29 16 43 -17 10 -17 11 1 18 19 7 18 8 -2 8 -17 1 -23 -5 -23
-19z"/>
<path d="M2170 2015 c-16 -19 -9 -49 13 -53 21 -4 35 27 17 38 -7 4 -9 13 -6
19 10 16 -10 13 -24 -4z"/>
<path d="M416 1667 c-16 -12 -18 -29 -17 -133 1 -108 3 -121 22 -136 19 -16
51 -18 329 -18 289 0 309 1 331 19 23 18 25 18 43 3 16 -15 53 -17 341 -17
288 0 325 2 341 17 18 15 20 15 43 -3 22 -18 42 -19 331 -19 381 0 351 -13
352 153 1 80 -3 121 -12 132 -11 13 -58 15 -336 15 -295 0 -326 -2 -341 -17
-17 -17 -19 -17 -35 0 -16 15 -47 17 -338 17 -270 0 -324 -2 -344 -15 -21 -14
-24 -14 -36 0 -11 13 -58 15 -334 15 -250 0 -326 -3 -340 -13z m664 -132 l0
-125 -330 0 -330 0 0 125 0 125 330 0 330 0 0 -125z m714 -3 l1 -122 -327 0
-328 0 0 125 0 125 327 -2 326 -3 1 -123z m716 3 l0 -125 -330 0 -330 0 0 125
0 125 330 0 330 0 0 -125z"/>
<path d="M742 1562 c13 -5 15 -11 8 -22 -12 -18 -13 -48 -2 -34 5 5 13 21 20
37 11 26 10 27 -16 26 -20 0 -23 -2 -10 -7z"/>
<path d="M1449 1565 c-7 -37 -1 -60 16 -60 15 0 20 8 22 33 2 26 -1 32 -17 32
-11 0 -20 -2 -21 -5z"/>
<path d="M2167 1563 c-13 -12 -7 -33 9 -33 14 0 14 -3 4 -15 -8 -10 -9 -15 -2
-15 16 0 35 39 28 56 -6 15 -28 19 -39 7z"/>
<path d="M412 1208 c-8 -8 -12 -52 -12 -134 0 -101 3 -124 17 -135 13 -11 81
-15 322 -17 274 -3 309 -2 338 14 28 14 35 15 49 3 14 -11 81 -15 334 -17 301
-2 319 -1 341 17 22 18 25 18 43 3 16 -15 53 -17 342 -17 202 0 327 4 333 10
16 16 17 251 1 270 -11 13 -56 15 -336 15 -295 0 -326 -2 -341 -17 -17 -17
-19 -17 -35 0 -16 15 -47 17 -338 17 -270 0 -324 -2 -344 -15 -21 -14 -24 -14
-36 0 -11 13 -59 15 -339 15 -241 0 -330 -3 -339 -12z m668 -133 l0 -125 -330
0 -330 0 0 125 0 125 330 0 330 0 0 -125z m714 -3 l1 -122 -327 0 -328 0 0
125 0 125 327 -2 326 -3 1 -123z m716 3 l0 -125 -330 0 -330 0 0 125 0 125
330 0 330 0 0 -125z"/>
<path d="M734 1096 c-9 -23 0 -51 17 -54 19 -4 32 23 24 49 -7 22 -33 25 -41
5z"/>
<path d="M1453 1085 c-10 -10 -9 -16 3 -26 13 -10 17 -10 24 1 5 8 6 17 2 20
-4 3 -9 8 -12 12 -3 3 -10 0 -17 -7z"/>
<path d="M412 748 c-8 -8 -12 -53 -12 -134 0 -116 1 -124 22 -138 19 -14 68
-16 329 -16 292 0 308 1 332 20 24 19 26 19 43 3 16 -16 47 -18 335 -20 297
-3 318 -1 341 16 23 18 24 18 47 0 22 -18 44 -19 325 -19 165 0 311 3 323 6
30 8 35 28 38 148 3 75 0 107 -11 124 l-14 22 -323 0 c-260 0 -326 -3 -343
-14 -17 -12 -22 -12 -39 0 -15 11 -80 14 -339 14 -283 0 -321 -2 -338 -17 -17
-15 -19 -15 -36 0 -17 15 -55 17 -343 17 -240 0 -328 -3 -337 -12z m668 -133
l0 -125 -330 0 -330 0 0 125 0 125 330 0 330 0 0 -125z m715 0 l0 -125 -327 0
-328 0 0 125 0 125 328 0 327 0 0 -125z m715 0 l0 -125 -330 0 -330 0 0 125 0
125 330 0 330 0 0 -125z"/>
<path d="M750 650 c0 -6 -4 -9 -9 -5 -6 3 -9 -4 -8 -15 1 -11 8 -20 18 -20 23
0 30 22 13 38 -9 8 -14 9 -14 2z"/>
<path d="M1462 614 c-30 -61 -22 -67 12 -10 28 48 31 56 18 56 -4 0 -18 -21
-30 -46z"/>
<path d="M2225 620 c0 -29 4 -40 15 -40 12 0 15 9 12 40 -2 22 -9 40 -16 40
-6 0 -11 -17 -11 -40z"/>
<path d="M2100 615 c0 -32 3 -36 23 -33 17 2 22 10 22 33 0 23 -5 31 -22 33
-20 3 -23 -1 -23 -33z"/>
<path d="M2171 631 c-19 -12 -9 -45 14 -49 20 -3 20 -3 0 10 -20 12 -19 12 4
18 20 4 21 7 9 17 -8 7 -19 8 -27 4z"/>
</g>
</svg>
