<?xml version="1.0" standalone="no"?>
<!DOCTYPE svg PUBLIC "-//W3C//DTD SVG 20010904//EN"
 "http://www.w3.org/TR/2001/REC-SVG-20010904/DTD/svg10.dtd">
<svg version="1.0" xmlns="http://www.w3.org/2000/svg"
 width="300.000000pt" height="273.000000pt" viewBox="0 0 300.000000 273.000000"
 preserveAspectRatio="xMidYMid meet">
<metadata>
Created by potrace 1.10, written by Peter Selinger 2001-2011
</metadata>
<g transform="translate(0.000000,273.000000) scale(0.100000,-0.100000)"
fill="#000000" stroke="none">
<path d="M1430 2388 c-110 -8 -240 -43 -343 -93 -454 -217 -688 -724 -556
-1206 50 -184 186 -397 326 -512 335 -274 767 -323 1145 -130 580 297 740
1054 330 1564 -216 268 -542 404 -902 377z m220 -38 c9 -5 -29 -9 -108 -9 -67
0 -147 -5 -179 -11 -80 -16 -196 -50 -208 -61 -5 -5 -19 -9 -30 -9 -12 0 -30
-8 -41 -17 -10 -10 -39 -29 -64 -42 -109 -58 -235 -177 -305 -286 -93 -145
-163 -344 -167 -475 -4 -112 5 -227 23 -300 21 -84 42 -146 52 -156 4 -4 7
-14 7 -22 0 -15 54 -108 102 -176 119 -167 326 -310 538 -370 213 -60 469 -39
667 55 276 131 465 355 545 646 18 66 22 104 21 248 0 155 -2 178 -27 260 -65
216 -198 409 -367 530 -114 81 -278 152 -396 171 -43 7 -60 24 -24 24 30 0
218 -58 269 -84 105 -51 189 -108 262 -177 70 -67 179 -212 172 -231 -1 -5 2
-8 7 -8 14 0 78 -150 102 -241 20 -71 23 -110 23 -254 1 -159 -1 -176 -27
-265 -58 -192 -131 -316 -261 -445 -171 -168 -372 -265 -611 -294 -169 -20
-355 15 -532 100 -335 160 -554 495 -567 866 -13 354 161 696 448 878 107 68
289 146 304 130 3 -3 10 0 17 5 29 24 322 41 355 20z m-130 -120 c0 -66 3 -80
16 -80 13 0 15 13 12 80 l-3 81 35 -3 35 -3 -3 -54 c-3 -36 0 -51 7 -47 6 4
11 27 11 52 0 39 3 44 23 44 39 0 68 -12 63 -26 -13 -34 -18 -87 -8 -80 6 3
14 26 17 50 l7 43 39 -10 c44 -11 44 -10 24 -67 -11 -31 -12 -41 -2 -37 6 2
16 22 21 46 10 44 9 44 74 20 l23 -9 -21 -39 c-22 -43 -26 -66 -10 -56 5 3 15
24 21 45 14 44 20 47 66 22 l31 -17 -39 -64 c-42 -70 -46 -81 -26 -81 6 0 28
29 47 65 19 36 36 65 38 65 2 0 45 -26 61 -36 2 -2 -11 -20 -28 -40 -17 -21
-28 -40 -25 -43 6 -7 49 40 56 61 6 18 39 -5 121 -88 95 -94 95 -96 44 -130
-23 -15 -36 -29 -30 -31 7 -3 28 8 48 23 20 15 37 25 39 23 1 -2 12 -18 24
-35 l21 -30 -69 -38 c-46 -25 -67 -41 -64 -51 4 -10 17 -7 57 17 29 16 56 34
62 39 15 15 24 10 41 -22 18 -36 14 -42 -38 -59 -21 -6 -38 -16 -38 -21 0 -13
6 -12 52 11 23 11 43 19 44 17 2 -2 10 -20 19 -40 l15 -37 -45 -11 c-46 -12
-70 -29 -40 -29 8 0 31 6 50 14 39 17 40 15 50 -35 l7 -36 -46 -7 c-25 -4 -46
-12 -46 -18 0 -6 10 -8 25 -4 79 19 73 21 79 -21 3 -21 8 -62 12 -92 l6 -53
-78 3 c-55 3 -78 0 -81 -8 -4 -10 16 -13 76 -13 87 0 90 -2 75 -58 -6 -21 -10
-22 -57 -16 -36 5 -48 4 -43 -5 4 -6 27 -11 52 -11 47 0 49 -3 38 -59 -4 -21
-11 -30 -20 -27 -32 12 -87 18 -81 9 4 -6 25 -13 48 -17 l41 -7 -7 -37 c-4
-20 -8 -39 -10 -41 -2 -2 -24 4 -49 12 -25 9 -48 12 -51 7 -5 -8 54 -30 83
-30 17 0 16 -6 -26 -92 l-37 -77 -64 39 c-58 35 -81 41 -81 22 0 -4 29 -23 65
-42 36 -19 65 -39 65 -44 0 -30 -221 -276 -249 -276 -3 0 -16 18 -29 40 -12
22 -27 40 -32 40 -16 0 -11 -13 21 -50 l30 -35 -28 -22 c-15 -13 -30 -23 -33
-23 -3 0 -21 29 -39 65 -19 36 -41 65 -49 65 -18 0 -12 -15 32 -85 l36 -55
-40 -20 -39 -20 -22 48 c-12 26 -23 41 -26 34 -3 -7 5 -28 16 -48 12 -19 21
-37 21 -39 0 -5 -156 -55 -170 -55 -5 0 -12 20 -16 45 -3 25 -11 45 -16 45
-10 0 -4 -52 9 -86 3 -10 -2 -14 -18 -14 -13 0 -34 -3 -46 -6 -22 -6 -23 -3
-23 45 0 31 -4 51 -11 51 -8 0 -10 -16 -5 -50 l7 -50 -31 0 c-16 0 -33 0 -36
0 -4 0 -6 36 -5 80 2 68 0 80 -14 80 -14 0 -16 -12 -14 -82 l2 -82 -44 2 c-24
1 -66 5 -92 8 -48 6 -48 6 -42 38 4 17 9 39 11 49 3 9 1 17 -5 17 -5 0 -13
-21 -17 -46 l-7 -46 -36 7 c-51 10 -53 12 -36 52 17 40 20 67 6 59 -5 -3 -14
-26 -20 -50 l-11 -45 -38 16 c-20 8 -38 16 -40 18 -2 2 6 21 17 44 24 45 25
51 12 51 -5 0 -17 -20 -26 -44 -16 -43 -18 -44 -46 -34 -16 5 -31 14 -34 18
-3 5 11 34 30 64 45 71 51 86 33 86 -15 0 -78 -102 -78 -126 0 -13 -5 -12 -31
3 -52 31 -55 40 -24 73 15 15 25 34 23 42 -3 7 -16 -4 -32 -29 -34 -50 -32
-51 -139 55 -81 79 -96 101 -75 113 29 16 63 47 57 53 -3 3 -22 -8 -43 -25
-36 -30 -38 -31 -51 -13 -20 27 -75 130 -75 141 0 6 18 16 40 23 22 7 40 17
40 22 0 12 -12 10 -53 -12 l-37 -20 -15 36 c-8 20 -15 39 -15 43 0 4 20 12 45
19 25 7 45 16 45 22 0 13 -1 13 -43 -5 -51 -21 -53 -20 -65 25 l-10 39 44 7
c24 3 47 11 51 17 6 10 -45 5 -78 -8 -17 -6 -29 18 -29 63 0 20 5 22 45 22 27
0 45 5 45 11 0 8 -16 9 -52 5 l-51 -7 6 123 c7 147 11 162 43 154 13 -3 35 -9
49 -12 15 -4 25 -2 25 5 0 5 -23 13 -50 17 -40 5 -50 10 -46 23 3 9 8 28 12
44 3 15 7 27 9 27 1 0 19 -7 38 -15 42 -17 57 -19 57 -6 0 5 -18 12 -40 16
-22 4 -42 11 -45 15 -3 5 1 25 9 45 l15 36 40 -21 c45 -22 51 -24 51 -11 0 5
-18 16 -40 25 -22 9 -40 18 -40 21 0 9 57 119 73 139 14 19 15 19 49 -7 37
-28 48 -33 48 -19 0 5 -16 17 -35 28 -41 22 -42 30 -9 68 l25 29 35 -33 c18
-19 36 -31 39 -28 3 3 -11 20 -32 37 l-38 31 33 33 c21 20 35 28 40 21 24 -36
53 -66 59 -60 4 3 -8 22 -27 40 l-33 35 29 25 c16 14 32 26 36 26 4 0 18 -16
30 -35 13 -19 26 -35 31 -35 13 0 8 12 -19 47 -25 33 -25 35 -8 48 23 17 129
75 138 75 3 0 13 -18 22 -40 9 -22 20 -40 25 -40 10 0 -9 58 -22 66 -18 11 -8
24 27 39 20 8 38 15 40 15 2 0 9 -20 15 -45 6 -25 15 -45 20 -45 13 0 11 16
-6 57 -8 20 -14 37 -13 38 2 1 22 7 44 12 l42 10 6 -48 c4 -27 12 -49 17 -49
7 0 9 10 4 28 -3 15 -9 37 -12 49 -4 19 0 23 34 28 21 4 45 8 53 10 8 1 32 3
53 4 l37 1 0 -80z"/>
<path d="M1424 2274 c3 -9 6 -30 6 -47 0 -20 3 -28 10 -21 12 12 1 84 -12 84
-6 0 -7 -7 -4 -16z"/>
<path d="M1060 2169 c0 -20 65 -129 78 -129 18 0 16 7 -25 77 -35 59 -53 77
-53 52z"/>
<path d="M1485 2070 c-3 -5 -1 -10 4 -10 15 0 14 -57 -1 -63 -7 -3 -2 -6 12
-6 24 -1 25 2 22 44 -4 43 -22 60 -37 35z"/>
<path d="M1550 2070 c0 -5 7 -7 15 -4 19 8 19 -15 0 -40 -22 -29 -19 -36 15
-36 17 0 30 5 30 10 0 6 -10 10 -22 10 l-22 0 22 20 c12 11 19 27 16 35 -7 16
-54 21 -54 5z"/>
<path d="M2119 2029 c-33 -35 -31 -53 2 -23 23 21 43 54 33 54 -3 0 -19 -14
-35 -31z"/>
<path d="M2186 1964 c-15 -14 -25 -28 -22 -32 4 -3 21 8 39 26 37 38 25 43
-17 6z"/>
<path d="M716 1831 c-4 -5 25 -27 63 -49 52 -30 71 -37 75 -27 3 9 -18 26 -60
49 -72 40 -71 40 -78 27z"/>
<path d="M1160 1781 c-5 -11 -10 -29 -10 -41 0 -46 17 -60 73 -59 l52 2 -48 6
c-48 7 -67 21 -67 52 0 33 24 48 85 52 l60 3 -67 2 c-57 2 -69 -1 -78 -17z"/>
<path d="M1373 1793 c20 -2 54 -2 75 0 20 2 3 4 -38 4 -41 0 -58 -2 -37 -4z"/>
<path d="M1600 1780 c0 -11 -6 -20 -13 -20 -9 0 -13 -11 -11 -32 2 -30 -22
-181 -45 -281 -8 -34 1 -59 16 -43 6 5 56 277 66 354 3 23 1 42 -4 42 -5 0 -9
-9 -9 -20z"/>
<path d="M1795 1793 c72 -5 95 -11 95 -28 0 -8 4 -15 10 -15 11 0 1 32 -14 42
-6 4 -40 7 -76 6 -58 -1 -59 -2 -15 -5z"/>
<path d="M1284 1735 c-2 -33 21 -33 24 0 1 14 -4 25 -11 25 -6 0 -13 -11 -13
-25z"/>
<path d="M1333 1735 c0 -14 5 -25 13 -25 20 0 27 19 9 26 -13 6 -14 8 -3 15
10 7 9 9 -3 9 -11 0 -16 -9 -16 -25z"/>
<path d="M1622 1738 c2 -13 8 -23 13 -23 6 0 11 10 13 23 2 15 -2 22 -13 22
-11 0 -15 -7 -13 -22z"/>
<path d="M1677 1754 c9 -4 10 -11 3 -25 -9 -16 -7 -19 8 -19 26 0 22 44 -4 47
-10 2 -13 0 -7 -3z"/>
<path d="M1734 1745 c-3 -8 -3 -19 1 -25 11 -18 25 -11 25 15 0 27 -17 34 -26
10z"/>
<path d="M1885 1718 c-8 -19 -20 -24 -65 -29 l-55 -6 55 -1 c64 -2 83 7 78 37
l-3 22 -10 -23z"/>
<path d="M600 1461 c0 -9 71 -23 79 -16 7 8 -2 12 -41 18 -21 3 -38 2 -38 -2z"/>
<path d="M2408 1462 c-21 -2 -38 -7 -38 -13 0 -8 78 -2 88 6 8 7 -16 10 -50 7z"/>
<path d="M797 1384 c-14 -14 -6 -43 13 -49 11 -4 18 -11 14 -16 -3 -6 -12 -8
-20 -5 -8 3 -14 1 -14 -4 0 -6 11 -10 25 -10 43 0 46 79 3 88 -7 1 -17 0 -21
-4z"/>
<path d="M2220 1374 c0 -13 3 -14 13 -5 8 6 17 8 20 4 4 -3 2 -12 -4 -20 -9
-9 -8 -13 0 -13 6 0 11 -7 11 -16 0 -11 -6 -15 -20 -11 -11 3 -20 1 -20 -4 0
-5 13 -9 30 -9 29 0 30 1 27 43 -2 38 -5 42 -29 45 -21 3 -28 -1 -28 -14z"/>
<path d="M653 1373 c-91 -6 -77 -23 18 -23 60 0 80 3 77 13 -5 14 -11 15 -95
10z"/>
<path d="M1480 1339 c0 -8 -72 -80 -161 -159 -88 -80 -182 -164 -207 -187 -26
-24 -75 -66 -109 -95 -34 -29 -62 -59 -62 -65 -1 -17 6 -16 27 5 10 9 53 49
97 87 44 39 111 99 150 135 38 36 113 104 165 150 52 47 97 88 100 92 3 3 24
6 47 5 37 -2 56 -14 195 -129 231 -192 313 -256 317 -252 9 8 -47 59 -258 236
-153 129 -216 177 -224 169 -16 -16 -38 -14 -59 6 -15 13 -18 13 -18 2z"/>
<path d="M2300 1014 c0 -7 66 -34 82 -34 7 1 -3 9 -22 20 -35 19 -60 25 -60
14z"/>
<path d="M1357 1004 c-4 -4 -7 -17 -7 -28 0 -17 2 -18 10 -6 5 8 10 10 10 5 0
-6 9 -11 20 -12 15 -1 20 4 20 25 -1 25 -2 26 -14 9 -13 -17 -15 -17 -23 -2
-5 8 -12 12 -16 9z"/>
<path d="M1556 989 c-17 -17 -18 -19 -2 -25 21 -8 29 -1 24 24 -3 18 -4 18
-22 1z"/>
<path d="M1430 976 c0 -10 9 -16 21 -16 24 0 21 23 -4 28 -10 2 -17 -3 -17
-12z"/>
<path d="M1655 965 c0 -30 10 -32 25 -6 14 27 13 31 -7 31 -12 0 -18 -8 -18
-25z"/>
<path d="M800 953 c-81 -47 -91 -54 -84 -64 3 -6 33 5 72 27 81 45 78 42 66
54 -6 6 -26 0 -54 -17z"/>
<path d="M1150 966 c0 -36 28 -46 128 -44 l97 2 -90 3 c-64 3 -94 8 -107 20
-10 9 -15 20 -12 24 3 5 0 9 -5 9 -6 0 -11 -6 -11 -14z"/>
<path d="M1884 953 c-9 -15 -31 -19 -110 -24 l-99 -5 101 -2 c79 -2 104 1 114
13 6 8 10 19 8 25 -1 5 -8 2 -14 -7z"/>
<path d="M2217 863 c-4 -3 8 -17 25 -30 33 -24 54 -30 43 -13 -10 17 -62 50
-68 43z"/>
<path d="M855 770 c-16 -16 -26 -32 -24 -34 6 -7 69 43 69 55 0 17 -16 9 -45
-21z"/>
<path d="M2160 792 c0 -9 36 -44 58 -57 11 -6 11 -3 2 11 -15 23 -60 58 -60
46z"/>
<path d="M922 700 c-31 -41 -27 -49 8 -15 17 16 30 32 30 37 0 17 -17 7 -38
-22z"/>
<path d="M1504 703 c-8 -32 6 -58 32 -58 13 0 20 8 22 28 3 22 -1 27 -18 27
-12 0 -18 4 -15 11 4 6 13 8 21 5 8 -3 14 -1 14 4 0 6 -11 10 -25 10 -18 0
-26 -7 -31 -27z"/>
<path d="M2120 695 c18 -19 36 -32 39 -30 6 7 -50 65 -63 65 -5 0 5 -16 24
-35z"/>
<path d="M1788 555 c-3 -6 3 -28 13 -50 11 -26 18 -33 18 -20 0 27 -24 82 -31
70z"/>
<path d="M1428 479 c-2 -22 0 -43 4 -45 4 -3 8 5 8 18 0 13 3 33 6 46 4 12 2
22 -4 22 -5 0 -12 -18 -14 -41z"/>
</g>
</svg>
