<svg viewBox="0, 0 27 27" xmlns="http://www.w3.org/2000/svg" version="1.1" width="300"><g class="anchors"><g class="anchor" data-position="top-left"><path class="anchor-outer" fill="#e22a2a" d="M1.5 1h6s0.5 0 .5 .5v6s0 .5-.5 .5h-6s-.5 0-.5-.5v-6s0-.5 .5-.5zm.75 1s-.25 0-.25 .25v4.5s0 .25 .25 .25h4.5s.25 0 .25-.25v-4.5s0-.25 -.25 -.25h-4.5z" /> <path class="anchor-outer" fill="currentcolor" d="M3.5 3 h2 s.5 0 .5 .5 v2 s0 .5-.5 .5 h-2 s-.5 0-.5-.5 v-2 s0-.5 .5-.5 z" /></g><g class="anchor" data-position="top-right"><path class="anchor-outer" fill="#e22a2a" d="M19.5 1h6s0.5 0 .5 .5v6s0 .5-.5 .5h-6s-.5 0-.5-.5v-6s0-.5 .5-.5zm.75 1s-.25 0-.25 .25v4.5s0 .25 .25 .25h4.5s.25 0 .25-.25v-4.5s0-.25 -.25 -.25h-4.5z" /> <path class="anchor-outer" fill="currentcolor" d="M21.5 3 h2 s.5 0 .5 .5 v2 s0 .5-.5 .5 h-2 s-.5 0-.5-.5 v-2 s0-.5 .5-.5 z" /></g><g class="anchor" data-position="bottom-left"><path class="anchor-outer" fill="#e22a2a" d="M1.5 19h6s0.5 0 .5 .5v6s0 .5-.5 .5h-6s-.5 0-.5-.5v-6s0-.5 .5-.5zm.75 1s-.25 0-.25 .25v4.5s0 .25 .25 .25h4.5s.25 0 .25-.25v-4.5s0-.25 -.25 -.25h-4.5z" /> <path class="anchor-outer" fill="currentcolor" d="M3.5 21 h2 s.5 0 .5 .5 v2 s0 .5-.5 .5 h-2 s-.5 0-.5-.5 v-2 s0-.5 .5-.5 z" /></g></g> <g class="modules"><rect class="module" fill="currentcolor" data-column="0" data-row="9" x="1" y="10" width="1" height="1" rx="0.5" /><rect class="module" fill="currentcolor" data-column="0" data-row="12" x="1" y="13" width="1" height="1" rx="0.5" /><rect class="module" fill="currentcolor" data-column="0" data-row="14" x="1" y="15" width="1" height="1" rx="0.5" /><rect class="module" fill="currentcolor" data-column="0" data-row="16" x="1" y="17" width="1" height="1" rx="0.5" /><rect class="module" fill="currentcolor" data-column="1" data-row="9" x="2" y="10" width="1" height="1" rx="0.5" /><rect class="module" fill="currentcolor" data-column="1" data-row="13" x="2" y="14" width="1" height="1" rx="0.5" /><rect class="module" fill="currentcolor" data-column="1" data-row="15" x="2" y="16" width="1" height="1" rx="0.5" /><rect class="module" fill="currentcolor" data-column="1" data-row="16" x="2" y="17" width="1" height="1" rx="0.5" /><rect class="module" fill="currentcolor" data-column="2" data-row="9" x="3" y="10" width="1" height="1" rx="0.5" /><rect class="module" fill="currentcolor" data-column="2" data-row="10" x="3" y="11" width="1" height="1" rx="0.5" /><rect class="module" fill="currentcolor" data-column="2" data-row="13" x="3" y="14" width="1" height="1" rx="0.5" /><rect class="module" fill="currentcolor" data-column="3" data-row="8" x="4" y="9" width="1" height="1" rx="0.5" /><rect class="module" fill="currentcolor" data-column="3" data-row="11" x="4" y="12" width="1" height="1" rx="0.5" /><rect class="module" fill="currentcolor" data-column="3" data-row="14" x="4" y="15" width="1" height="1" rx="0.5" /><rect class="module" fill="currentcolor" data-column="4" data-row="10" x="5" y="11" width="1" height="1" rx="0.5" /><rect class="module" fill="currentcolor" data-column="4" data-row="12" x="5" y="13" width="1" height="1" rx="0.5" /><rect class="module" fill="currentcolor" data-column="4" data-row="14" x="5" y="15" width="1" height="1" rx="0.5" /><rect class="module" fill="currentcolor" data-column="4" data-row="16" x="5" y="17" width="1" height="1" rx="0.5" /><rect class="module" fill="currentcolor" data-column="5" data-row="10" x="6" y="11" width="1" height="1" rx="0.5" /><rect class="module" fill="currentcolor" data-column="5" data-row="11" x="6" y="12" width="1" height="1" rx="0.5" /><rect class="module" fill="currentcolor" data-column="5" data-row="12" x="6" y="13" width="1" height="1" rx="0.5" /><rect class="module" fill="currentcolor" data-column="5" data-row="13" x="6" y="14" width="1" height="1" rx="0.5" /><rect class="module" fill="currentcolor" data-column="5" data-row="14" x="6" y="15" width="1" height="1" rx="0.5" /><rect class="module" fill="currentcolor" data-column="5" data-row="15" x="6" y="16" width="1" height="1" rx="0.5" /><rect class="module" fill="currentcolor" data-column="5" data-row="16" x="6" y="17" width="1" height="1" rx="0.5" /><rect class="module" fill="currentcolor" data-column="6" data-row="8" x="7" y="9" width="1" height="1" rx="0.5" /><rect class="module" fill="currentcolor" data-column="6" data-row="10" x="7" y="11" width="1" height="1" rx="0.5" /><rect class="module" fill="currentcolor" data-column="6" data-row="12" x="7" y="13" width="1" height="1" rx="0.5" /><rect class="module" fill="currentcolor" data-column="6" data-row="14" x="7" y="15" width="1" height="1" rx="0.5" /><rect class="module" fill="currentcolor" data-column="6" data-row="16" x="7" y="17" width="1" height="1" rx="0.5" /><rect class="module" fill="currentcolor" data-column="7" data-row="9" x="8" y="10" width="1" height="1" rx="0.5" /><rect class="module" fill="currentcolor" data-column="7" data-row="10" x="8" y="11" width="1" height="1" rx="0.5" /><rect class="module" fill="currentcolor" data-column="7" data-row="11" x="8" y="12" width="1" height="1" rx="0.5" /><rect class="module" fill="currentcolor" data-column="7" data-row="12" x="8" y="13" width="1" height="1" rx="0.5" /><rect class="module" fill="currentcolor" data-column="7" data-row="13" x="8" y="14" width="1" height="1" rx="0.5" /><rect class="module" fill="currentcolor" data-column="7" data-row="14" x="8" y="15" width="1" height="1" rx="0.5" /><rect class="module" fill="currentcolor" data-column="7" data-row="15" x="8" y="16" width="1" height="1" rx="0.5" /><rect class="module" fill="currentcolor" data-column="8" data-row="0" x="9" y="1" width="1" height="1" rx="0.5" /><rect class="module" fill="currentcolor" data-column="8" data-row="1" x="9" y="2" width="1" height="1" rx="0.5" /><rect class="module" fill="currentcolor" data-column="8" data-row="3" x="9" y="4" width="1" height="1" rx="0.5" /><rect class="module" fill="currentcolor" data-column="8" data-row="4" x="9" y="5" width="1" height="1" rx="0.5" /><rect class="module" fill="currentcolor" data-column="8" data-row="5" x="9" y="6" width="1" height="1" rx="0.5" /><rect class="module" fill="currentcolor" data-column="8" data-row="6" x="9" y="7" width="1" height="1" rx="0.5" /><rect class="module" fill="currentcolor" data-column="8" data-row="9" x="9" y="10" width="1" height="1" rx="0.5" /><rect class="module" fill="currentcolor" data-column="8" data-row="11" x="9" y="12" width="1" height="1" rx="0.5" /><rect class="module" fill="currentcolor" data-column="8" data-row="12" x="9" y="13" width="1" height="1" rx="0.5" /><rect class="module" fill="currentcolor" data-column="8" data-row="17" x="9" y="18" width="1" height="1" rx="0.5" /><rect class="module" fill="currentcolor" data-column="8" data-row="21" x="9" y="22" width="1" height="1" rx="0.5" /><rect class="module" fill="currentcolor" data-column="9" data-row="0" x="10" y="1" width="1" height="1" rx="0.5" /><rect class="module" fill="currentcolor" data-column="9" data-row="3" x="10" y="4" width="1" height="1" rx="0.5" /><rect class="module" fill="currentcolor" data-column="9" data-row="7" x="10" y="8" width="1" height="1" rx="0.5" /><rect class="module" fill="currentcolor" data-column="9" data-row="8" x="10" y="9" width="1" height="1" rx="0.5" /><rect class="module" fill="currentcolor" data-column="9" data-row="9" x="10" y="10" width="1" height="1" rx="0.5" /><rect class="module" fill="currentcolor" data-column="9" data-row="10" x="10" y="11" width="1" height="1" rx="0.5" /><rect class="module" fill="currentcolor" data-column="9" data-row="11" x="10" y="12" width="1" height="1" rx="0.5" /><rect class="module" fill="currentcolor" data-column="9" data-row="17" x="10" y="18" width="1" height="1" rx="0.5" /><rect class="module" fill="currentcolor" data-column="9" data-row="21" x="10" y="22" width="1" height="1" rx="0.5" /><rect class="module" fill="currentcolor" data-column="9" data-row="24" x="10" y="25" width="1" height="1" rx="0.5" /><rect class="module" fill="currentcolor" data-column="10" data-row="0" x="11" y="1" width="1" height="1" rx="0.5" /><rect class="module" fill="currentcolor" data-column="10" data-row="1" x="11" y="2" width="1" height="1" rx="0.5" /><rect class="module" fill="currentcolor" data-column="10" data-row="2" x="11" y="3" width="1" height="1" rx="0.5" /><rect class="module" fill="currentcolor" data-column="10" data-row="6" x="11" y="7" width="1" height="1" rx="0.5" /><rect class="module" fill="currentcolor" data-column="10" data-row="7" x="11" y="8" width="1" height="1" rx="0.5" /><rect class="module" fill="currentcolor" data-column="10" data-row="10" x="11" y="11" width="1" height="1" rx="0.5" /><rect class="module" fill="currentcolor" data-column="10" data-row="11" x="11" y="12" width="1" height="1" rx="0.5" /><rect class="module" fill="currentcolor" data-column="10" data-row="13" x="11" y="14" width="1" height="1" rx="0.5" /><rect class="module" fill="currentcolor" data-column="10" data-row="14" x="11" y="15" width="1" height="1" rx="0.5" /><rect class="module" fill="currentcolor" data-column="10" data-row="15" x="11" y="16" width="1" height="1" rx="0.5" /><rect class="module" fill="currentcolor" data-column="10" data-row="16" x="11" y="17" width="1" height="1" rx="0.5" /><rect class="module" fill="currentcolor" data-column="10" data-row="17" x="11" y="18" width="1" height="1" rx="0.5" /><rect class="module" fill="currentcolor" data-column="10" data-row="19" x="11" y="20" width="1" height="1" rx="0.5" /><rect class="module" fill="currentcolor" data-column="10" data-row="20" x="11" y="21" width="1" height="1" rx="0.5" /><rect class="module" fill="currentcolor" data-column="10" data-row="22" x="11" y="23" width="1" height="1" rx="0.5" /><rect class="module" fill="currentcolor" data-column="10" data-row="24" x="11" y="25" width="1" height="1" rx="0.5" /><rect class="module" fill="currentcolor" data-column="11" data-row="4" x="12" y="5" width="1" height="1" rx="0.5" /><rect class="module" fill="currentcolor" data-column="11" data-row="5" x="12" y="6" width="1" height="1" rx="0.5" /><rect class="module" fill="currentcolor" data-column="11" data-row="7" x="12" y="8" width="1" height="1" rx="0.5" /><rect class="module" fill="currentcolor" data-column="11" data-row="10" x="12" y="11" width="1" height="1" rx="0.5" /><rect class="module" fill="currentcolor" data-column="11" data-row="12" x="12" y="13" width="1" height="1" rx="0.5" /><rect class="module" fill="currentcolor" data-column="11" data-row="14" x="12" y="15" width="1" height="1" rx="0.5" /><rect class="module" fill="currentcolor" data-column="11" data-row="16" x="12" y="17" width="1" height="1" rx="0.5" /><rect class="module" fill="currentcolor" data-column="11" data-row="20" x="12" y="21" width="1" height="1" rx="0.5" /><rect class="module" fill="currentcolor" data-column="11" data-row="21" x="12" y="22" width="1" height="1" rx="0.5" /><rect class="module" fill="currentcolor" data-column="11" data-row="23" x="12" y="24" width="1" height="1" rx="0.5" /><rect class="module" fill="currentcolor" data-column="12" data-row="0" x="13" y="1" width="1" height="1" rx="0.5" /><rect class="module" fill="currentcolor" data-column="12" data-row="2" x="13" y="3" width="1" height="1" rx="0.5" /><rect class="module" fill="currentcolor" data-column="12" data-row="3" x="13" y="4" width="1" height="1" rx="0.5" /><rect class="module" fill="currentcolor" data-column="12" data-row="4" x="13" y="5" width="1" height="1" rx="0.5" /><rect class="module" fill="currentcolor" data-column="12" data-row="6" x="13" y="7" width="1" height="1" rx="0.5" /><rect class="module" fill="currentcolor" data-column="12" data-row="7" x="13" y="8" width="1" height="1" rx="0.5" /><rect class="module" fill="currentcolor" data-column="12" data-row="8" x="13" y="9" width="1" height="1" rx="0.5" /><rect class="module" fill="currentcolor" data-column="12" data-row="9" x="13" y="10" width="1" height="1" rx="0.5" /><rect class="module" fill="currentcolor" data-column="12" data-row="12" x="13" y="13" width="1" height="1" rx="0.5" /><rect class="module" fill="currentcolor" data-column="12" data-row="14" x="13" y="15" width="1" height="1" rx="0.5" /><rect class="module" fill="currentcolor" data-column="12" data-row="16" x="13" y="17" width="1" height="1" rx="0.5" /><rect class="module" fill="currentcolor" data-column="12" data-row="24" x="13" y="25" width="1" height="1" rx="0.5" /><rect class="module" fill="currentcolor" data-column="13" data-row="1" x="14" y="2" width="1" height="1" rx="0.5" /><rect class="module" fill="currentcolor" data-column="13" data-row="4" x="14" y="5" width="1" height="1" rx="0.5" /><rect class="module" fill="currentcolor" data-column="13" data-row="8" x="14" y="9" width="1" height="1" rx="0.5" /><rect class="module" fill="currentcolor" data-column="13" data-row="9" x="14" y="10" width="1" height="1" rx="0.5" /><rect class="module" fill="currentcolor" data-column="13" data-row="11" x="14" y="12" width="1" height="1" rx="0.5" /><rect class="module" fill="currentcolor" data-column="13" data-row="12" x="14" y="13" width="1" height="1" rx="0.5" /><rect class="module" fill="currentcolor" data-column="13" data-row="13" x="14" y="14" width="1" height="1" rx="0.5" /><rect class="module" fill="currentcolor" data-column="13" data-row="15" x="14" y="16" width="1" height="1" rx="0.5" /><rect class="module" fill="currentcolor" data-column="13" data-row="16" x="14" y="17" width="1" height="1" rx="0.5" /><rect class="module" fill="currentcolor" data-column="13" data-row="17" x="14" y="18" width="1" height="1" rx="0.5" /><rect class="module" fill="currentcolor" data-column="13" data-row="18" x="14" y="19" width="1" height="1" rx="0.5" /><rect class="module" fill="currentcolor" data-column="13" data-row="19" x="14" y="20" width="1" height="1" rx="0.5" /><rect class="module" fill="currentcolor" data-column="13" data-row="20" x="14" y="21" width="1" height="1" rx="0.5" /><rect class="module" fill="currentcolor" data-column="14" data-row="2" x="15" y="3" width="1" height="1" rx="0.5" /><rect class="module" fill="currentcolor" data-column="14" data-row="3" x="15" y="4" width="1" height="1" rx="0.5" /><rect class="module" fill="currentcolor" data-column="14" data-row="6" x="15" y="7" width="1" height="1" rx="0.5" /><rect class="module" fill="currentcolor" data-column="14" data-row="9" x="15" y="10" width="1" height="1" rx="0.5" /><rect class="module" fill="currentcolor" data-column="14" data-row="10" x="15" y="11" width="1" height="1" rx="0.5" /><rect class="module" fill="currentcolor" data-column="14" data-row="11" x="15" y="12" width="1" height="1" rx="0.5" /><rect class="module" fill="currentcolor" data-column="14" data-row="12" x="15" y="13" width="1" height="1" rx="0.5" /><rect class="module" fill="currentcolor" data-column="14" data-row="14" x="15" y="15" width="1" height="1" rx="0.5" /><rect class="module" fill="currentcolor" data-column="14" data-row="17" x="15" y="18" width="1" height="1" rx="0.5" /><rect class="module" fill="currentcolor" data-column="14" data-row="19" x="15" y="20" width="1" height="1" rx="0.5" /><rect class="module" fill="currentcolor" data-column="14" data-row="24" x="15" y="25" width="1" height="1" rx="0.5" /><rect class="module" fill="currentcolor" data-column="15" data-row="0" x="16" y="1" width="1" height="1" rx="0.5" /><rect class="module" fill="currentcolor" data-column="15" data-row="7" x="16" y="8" width="1" height="1" rx="0.5" /><rect class="module" fill="currentcolor" data-column="15" data-row="8" x="16" y="9" width="1" height="1" rx="0.5" /><rect class="module" fill="currentcolor" data-column="15" data-row="9" x="16" y="10" width="1" height="1" rx="0.5" /><rect class="module" fill="currentcolor" data-column="15" data-row="11" x="16" y="12" width="1" height="1" rx="0.5" /><rect class="module" fill="currentcolor" data-column="15" data-row="12" x="16" y="13" width="1" height="1" rx="0.5" /><rect class="module" fill="currentcolor" data-column="15" data-row="13" x="16" y="14" width="1" height="1" rx="0.5" /><rect class="module" fill="currentcolor" data-column="15" data-row="14" x="16" y="15" width="1" height="1" rx="0.5" /><rect class="module" fill="currentcolor" data-column="15" data-row="16" x="16" y="17" width="1" height="1" rx="0.5" /><rect class="module" fill="currentcolor" data-column="15" data-row="19" x="16" y="20" width="1" height="1" rx="0.5" /><rect class="module" fill="currentcolor" data-column="15" data-row="23" x="16" y="24" width="1" height="1" rx="0.5" /><rect class="module" fill="currentcolor" data-column="15" data-row="24" x="16" y="25" width="1" height="1" rx="0.5" /><rect class="module" fill="currentcolor" data-column="16" data-row="0" x="17" y="1" width="1" height="1" rx="0.5" /><rect class="module" fill="currentcolor" data-column="16" data-row="4" x="17" y="5" width="1" height="1" rx="0.5" /><rect class="module" fill="currentcolor" data-column="16" data-row="5" x="17" y="6" width="1" height="1" rx="0.5" /><rect class="module" fill="currentcolor" data-column="16" data-row="6" x="17" y="7" width="1" height="1" rx="0.5" /><rect class="module" fill="currentcolor" data-column="16" data-row="12" x="17" y="13" width="1" height="1" rx="0.5" /><rect class="module" fill="currentcolor" data-column="16" data-row="14" x="17" y="15" width="1" height="1" rx="0.5" /><rect class="module" fill="currentcolor" data-column="16" data-row="15" x="17" y="16" width="1" height="1" rx="0.5" /><rect class="module" fill="currentcolor" data-column="16" data-row="16" x="17" y="17" width="1" height="1" rx="0.5" /><rect class="module" fill="currentcolor" data-column="16" data-row="17" x="17" y="18" width="1" height="1" rx="0.5" /><rect class="module" fill="currentcolor" data-column="16" data-row="18" x="17" y="19" width="1" height="1" rx="0.5" /><rect class="module" fill="currentcolor" data-column="16" data-row="19" x="17" y="20" width="1" height="1" rx="0.5" /><rect class="module" fill="currentcolor" data-column="16" data-row="20" x="17" y="21" width="1" height="1" rx="0.5" /><rect class="module" fill="currentcolor" data-column="17" data-row="9" x="18" y="10" width="1" height="1" rx="0.5" /><rect class="module" fill="currentcolor" data-column="17" data-row="10" x="18" y="11" width="1" height="1" rx="0.5" /><rect class="module" fill="currentcolor" data-column="17" data-row="12" x="18" y="13" width="1" height="1" rx="0.5" /><rect class="module" fill="currentcolor" data-column="17" data-row="13" x="18" y="14" width="1" height="1" rx="0.5" /><rect class="module" fill="currentcolor" data-column="17" data-row="14" x="18" y="15" width="1" height="1" rx="0.5" /><rect class="module" fill="currentcolor" data-column="17" data-row="16" x="18" y="17" width="1" height="1" rx="0.5" /><rect class="module" fill="currentcolor" data-column="17" data-row="20" x="18" y="21" width="1" height="1" rx="0.5" /><rect class="module" fill="currentcolor" data-column="17" data-row="21" x="18" y="22" width="1" height="1" rx="0.5" /><rect class="module" fill="currentcolor" data-column="17" data-row="22" x="18" y="23" width="1" height="1" rx="0.5" /><rect class="module" fill="currentcolor" data-column="17" data-row="23" x="18" y="24" width="1" height="1" rx="0.5" /><rect class="module" fill="currentcolor" data-column="18" data-row="11" x="19" y="12" width="1" height="1" rx="0.5" /><rect class="module" fill="currentcolor" data-column="18" data-row="14" x="19" y="15" width="1" height="1" rx="0.5" /><rect class="module" fill="currentcolor" data-column="18" data-row="16" x="19" y="17" width="1" height="1" rx="0.5" /><rect class="module" fill="currentcolor" data-column="18" data-row="18" x="19" y="19" width="1" height="1" rx="0.5" /><rect class="module" fill="currentcolor" data-column="18" data-row="20" x="19" y="21" width="1" height="1" rx="0.5" /><rect class="module" fill="currentcolor" data-column="18" data-row="22" x="19" y="23" width="1" height="1" rx="0.5" /><rect class="module" fill="currentcolor" data-column="18" data-row="23" x="19" y="24" width="1" height="1" rx="0.5" /><rect class="module" fill="currentcolor" data-column="19" data-row="8" x="20" y="9" width="1" height="1" rx="0.5" /><rect class="module" fill="currentcolor" data-column="19" data-row="9" x="20" y="10" width="1" height="1" rx="0.5" /><rect class="module" fill="currentcolor" data-column="19" data-row="11" x="20" y="12" width="1" height="1" rx="0.5" /><rect class="module" fill="currentcolor" data-column="19" data-row="13" x="20" y="14" width="1" height="1" rx="0.5" /><rect class="module" fill="currentcolor" data-column="19" data-row="16" x="20" y="17" width="1" height="1" rx="0.5" /><rect class="module" fill="currentcolor" data-column="19" data-row="20" x="20" y="21" width="1" height="1" rx="0.5" /><rect class="module" fill="currentcolor" data-column="19" data-row="21" x="20" y="22" width="1" height="1" rx="0.5" /><rect class="module" fill="currentcolor" data-column="20" data-row="8" x="21" y="9" width="1" height="1" rx="0.5" /><rect class="module" fill="currentcolor" data-column="20" data-row="10" x="21" y="11" width="1" height="1" rx="0.5" /><rect class="module" fill="currentcolor" data-column="20" data-row="11" x="21" y="12" width="1" height="1" rx="0.5" /><rect class="module" fill="currentcolor" data-column="20" data-row="14" x="21" y="15" width="1" height="1" rx="0.5" /><rect class="module" fill="currentcolor" data-column="20" data-row="15" x="21" y="16" width="1" height="1" rx="0.5" /><rect class="module" fill="currentcolor" data-column="20" data-row="16" x="21" y="17" width="1" height="1" rx="0.5" /><rect class="module" fill="currentcolor" data-column="20" data-row="17" x="21" y="18" width="1" height="1" rx="0.5" /><rect class="module" fill="currentcolor" data-column="20" data-row="18" x="21" y="19" width="1" height="1" rx="0.5" /><rect class="module" fill="currentcolor" data-column="20" data-row="19" x="21" y="20" width="1" height="1" rx="0.5" /><rect class="module" fill="currentcolor" data-column="20" data-row="20" x="21" y="21" width="1" height="1" rx="0.5" /><rect class="module" fill="currentcolor" data-column="20" data-row="21" x="21" y="22" width="1" height="1" rx="0.5" /><rect class="module" fill="currentcolor" data-column="20" data-row="22" x="21" y="23" width="1" height="1" rx="0.5" /><rect class="module" fill="currentcolor" data-column="20" data-row="23" x="21" y="24" width="1" height="1" rx="0.5" /><rect class="module" fill="currentcolor" data-column="20" data-row="24" x="21" y="25" width="1" height="1" rx="0.5" /><rect class="module" fill="currentcolor" data-column="21" data-row="8" x="22" y="9" width="1" height="1" rx="0.5" /><rect class="module" fill="currentcolor" data-column="21" data-row="9" x="22" y="10" width="1" height="1" rx="0.5" /><rect class="module" fill="currentcolor" data-column="21" data-row="12" x="22" y="13" width="1" height="1" rx="0.5" /><rect class="module" fill="currentcolor" data-column="21" data-row="13" x="22" y="14" width="1" height="1" rx="0.5" /><rect class="module" fill="currentcolor" data-column="21" data-row="14" x="22" y="15" width="1" height="1" rx="0.5" /><rect class="module" fill="currentcolor" data-column="21" data-row="17" x="22" y="18" width="1" height="1" rx="0.5" /><rect class="module" fill="currentcolor" data-column="21" data-row="18" x="22" y="19" width="1" height="1" rx="0.5" /><rect class="module" fill="currentcolor" data-column="21" data-row="22" x="22" y="23" width="1" height="1" rx="0.5" /><rect class="module" fill="currentcolor" data-column="22" data-row="10" x="23" y="11" width="1" height="1" rx="0.5" /><rect class="module" fill="currentcolor" data-column="22" data-row="14" x="23" y="15" width="1" height="1" rx="0.5" /><rect class="module" fill="currentcolor" data-column="22" data-row="16" x="23" y="17" width="1" height="1" rx="0.5" /><rect class="module" fill="currentcolor" data-column="22" data-row="17" x="23" y="18" width="1" height="1" rx="0.5" /><rect class="module" fill="currentcolor" data-column="22" data-row="18" x="23" y="19" width="1" height="1" rx="0.5" /><rect class="module" fill="currentcolor" data-column="22" data-row="19" x="23" y="20" width="1" height="1" rx="0.5" /><rect class="module" fill="currentcolor" data-column="22" data-row="21" x="23" y="22" width="1" height="1" rx="0.5" /><rect class="module" fill="currentcolor" data-column="23" data-row="8" x="24" y="9" width="1" height="1" rx="0.5" /><rect class="module" fill="currentcolor" data-column="23" data-row="10" x="24" y="11" width="1" height="1" rx="0.5" /><rect class="module" fill="currentcolor" data-column="23" data-row="11" x="24" y="12" width="1" height="1" rx="0.5" /><rect class="module" fill="currentcolor" data-column="23" data-row="13" x="24" y="14" width="1" height="1" rx="0.5" /><rect class="module" fill="currentcolor" data-column="23" data-row="16" x="24" y="17" width="1" height="1" rx="0.5" /><rect class="module" fill="currentcolor" data-column="23" data-row="18" x="24" y="19" width="1" height="1" rx="0.5" /><rect class="module" fill="currentcolor" data-column="23" data-row="20" x="24" y="21" width="1" height="1" rx="0.5" /><rect class="module" fill="currentcolor" data-column="23" data-row="21" x="24" y="22" width="1" height="1" rx="0.5" /><rect class="module" fill="currentcolor" data-column="23" data-row="24" x="24" y="25" width="1" height="1" rx="0.5" /><rect class="module" fill="currentcolor" data-column="24" data-row="8" x="25" y="9" width="1" height="1" rx="0.5" /><rect class="module" fill="currentcolor" data-column="24" data-row="9" x="25" y="10" width="1" height="1" rx="0.5" /><rect class="module" fill="currentcolor" data-column="24" data-row="10" x="25" y="11" width="1" height="1" rx="0.5" /><rect class="module" fill="currentcolor" data-column="24" data-row="12" x="25" y="13" width="1" height="1" rx="0.5" /><rect class="module" fill="currentcolor" data-column="24" data-row="13" x="25" y="14" width="1" height="1" rx="0.5" /><rect class="module" fill="currentcolor" data-column="24" data-row="14" x="25" y="15" width="1" height="1" rx="0.5" /><rect class="module" fill="currentcolor" data-column="24" data-row="18" x="25" y="19" width="1" height="1" rx="0.5" /><rect class="module" fill="currentcolor" data-column="24" data-row="22" x="25" y="23" width="1" height="1" rx="0.5" /><rect class="module" fill="currentcolor" data-column="24" data-row="24" x="25" y="25" width="1" height="1" rx="0.5" /></g> </svg>